<mxfile host="app.diagrams.net" modified="2021-02-04T19:33:48.424Z" agent="5.0 (X11; Linux x86_64) AppleWebKit/537.36 (KHTML, like Gecko) Chrome/87.0.4280.67 Safari/537.36" etag="6ANFNqyaPEKN2VIZw1x_" version="13.10.9" type="github">
  <diagram id="INKjwyb-vYpEfY8y4Dvn" name="Page-1">
    <mxGraphModel dx="1008" dy="858" grid="1" gridSize="10" guides="1" tooltips="1" connect="1" arrows="1" fold="1" page="1" pageScale="1" pageWidth="850" pageHeight="1100" math="0" shadow="0">
      <root>
        <mxCell id="0" />
        <mxCell id="1" parent="0" />
      </root>
    </mxGraphModel>
  </diagram>
</mxfile>
